<svg xmlns="http://www.w3.org/2000/svg" width="100" height="18" viewBox="0 0 100 18">
    <g fill="none" fill-rule="evenodd">
        <g fill="#EBEBEB" fill-rule="nonzero">
            <g>
                <path d="M23.994 11.688V6.506h5.707v5.69h-4.378c-.23 0-.519.006-.769.079-.263.076-.485.226-.57.514-.076.26-.087.387-.1.659-.005.097-.005 4.028-.005 4.552-4.616-.02-7.47-2.393-9.879-5.405-1.111-1.39-2.117-2.922-3.27-4.257-1.115-1.291-2.38-2.402-4.297-2.613l-.21-.02H6.22c-.14-.007-.28.008-.376.088-.05.041-.085.11-.106.189-.027.104-.032.227-.032.31v5.2H0V5.803h4.488c.409-.006.839-.053 1.079-.324.1-.113.163-.275.2-.455.053-.258.055-.554.055-.787V0c4.616.02 7.47 2.393 9.879 5.405 1.111 1.39 2.117 2.922 3.27 4.256 1.16 1.345 2.483 2.493 4.532 2.635h.003c.13.005.257-.014.347-.088.04-.033.07-.09.092-.156.041-.134.047-.311.049-.357v-.007zm25.596-1.185c0 3.024 2.26 5.085 5.564 5.085 2.821.02 4.908-1.483 5.468-3.757h-2.415c-.444 1.118-1.507 1.83-3.053 1.811-1.797 0-3.014-1.04-3.207-2.639h8.675c.232-3.39-2.009-5.586-5.487-5.586-3.304.02-5.545 2.042-5.545 5.086zM82.3 5.687v4.816c0 1.926-1.256 3.1-3.072 3.1-1.913 0-2.666-.962-2.666-2.908V5.687h-2.32v5.297c0 3.044 1.74 4.604 4.465 4.604 1.506 0 2.743-.674 3.458-1.657h.174l.135 1.387H84.6V5.687h-2.299zm9.7 3.62c.135-1.347 1.043-2.022 2.898-2.022 1.99 0 2.802.675 2.802 2.12v.52c-.909-.174-1.952-.29-3.015-.29-2.898 0-4.733 1.137-4.733 3.044 0 1.83 1.545 2.91 3.825 2.91 1.7 0 2.976-.656 3.787-1.658h.174l.135 1.387H100V9.404c0-2.6-1.817-4.006-5.1-4.006-3.17 0-4.986 1.444-5.18 3.91H92zm-27.94 6.01l.136-1.366h.174c.734.963 1.99 1.637 3.632 1.637 2.821 0 5.043-2.08 5.043-5.085 0-3.006-2.145-5.086-5.043-5.086-1.642 0-2.878.674-3.594 1.637h-.174V2.412h-2.3v12.906h2.127zm-26.103 0V4.532h.251l5.797 10.787h4.23V2.412h-2.491v10.787h-.232L39.697 2.412h-4.231v12.906h2.492zM88.484 2.413h-2.28v12.906h2.28V2.412zm3.807 10.094c0-.867.966-1.271 2.492-1.271 1.14 0 2.106.115 2.975.27-.309 1.347-1.777 2.195-3.516 2.195-1.12 0-1.951-.327-1.951-1.194zm-28.113-2.003c0-1.85 1.236-3.121 3.245-3.121 2.068 0 3.266 1.175 3.266 3.12 0 1.946-1.198 3.12-3.266 3.12-2.009 0-3.245-1.29-3.245-3.12zM52.024 9.404c.252-1.29 1.507-2.06 3.13-2.06s2.763.77 2.995 2.06h-6.125zM21.086.216l.383 1.776c.12.555.555.989 1.112 1.108l1.781.382-1.781.382c-.557.12-.992.553-1.112 1.108l-.383 1.776-.383-1.776c-.12-.555-.555-.989-1.112-1.108l-1.781-.382 1.78-.382c.558-.12.993-.553 1.113-1.108l.383-1.776z" transform="translate(-174 -24) translate(174 24)"/>
            </g>
        </g>
    </g>
</svg>
